<!DOCTYPE svg PUBLIC "-//W3C//DTD SVG 20010904//EN" "http://www.w3.org/TR/2001/REC-SVG-20010904/DTD/svg10.dtd">
<svg version="1.0" xmlns="http://www.w3.org/2000/svg" width="200px" height="200px" viewBox="0 0 2000 2000" preserveAspectRatio="xMidYMid meet">
<g id="layer101" fill="#8e29aa" stroke="none">
 <path d="M565 1523 c3 -27 14 -70 23 -96 13 -37 21 -47 37 -45 15 2 23 18 36 68 24 91 24 120 -1 120 -15 0 -20 -7 -20 -25 0 -18 -5 -25 -20 -25 -15 0 -20 7 -20 25 0 19 -5 25 -21 25 -20 0 -21 -4 -14 -47z"/>
 <path d="M860 1495 c0 -60 -3 -75 -15 -75 -8 0 -15 -6 -15 -13 0 -8 -81 -60 -179 -116 -99 -57 -188 -112 -198 -123 -16 -18 -18 -44 -21 -249 -3 -249 3 -296 45 -335 47 -43 419 -254 449 -254 24 0 325 74 412 101 64 21 42 42 -168 161 -107 60 -204 114 -216 118 -15 6 -77 -6 -199 -36 -98 -25 -185 -44 -193 -42 -8 2 -20 11 -26 20 -16 26 8 45 174 138 80 45 154 90 165 101 19 18 20 35 23 253 3 222 4 234 23 239 25 7 25 27 -1 34 -18 5 -20 14 -20 79 0 67 -2 74 -20 74 -18 0 -20 -7 -20 -75z"/>
 <path d="M970 1237 c0 -306 1 -335 18 -349 9 -8 88 -55 175 -104 86 -48 156 -93 154 -99 -2 -5 -27 -23 -55 -40 -28 -16 -52 -32 -52 -35 0 -3 18 -15 41 -28 l40 -23 63 35 c41 23 66 44 70 58 9 36 7 474 -3 500 -6 17 -63 55 -190 128 -129 74 -181 109 -181 122 0 13 -8 18 -25 18 -18 0 -25 5 -25 20 0 15 7 20 25 20 18 0 25 5 25 20 0 15 -7 20 -25 20 -18 0 -25 5 -25 20 0 15 7 20 25 20 16 0 25 6 25 15 0 11 -11 15 -40 15 l-40 0 0 -333z"/>
 <path d="M1091 1539 c-14 -41 -14 -84 1 -126 10 -28 17 -33 45 -33 22 0 36 6 43 19 15 29 12 41 -10 41 -11 0 -20 -4 -20 -10 0 -19 -30 -10 -31 10 -4 73 0 100 15 100 8 0 16 -7 20 -15 8 -21 36 -19 36 3 0 27 -20 42 -56 42 -27 0 -34 -5 -43 -31z"/>
 <path d="M1203 1478 c2 -79 5 -93 20 -96 14 -3 17 4 17 37 0 34 3 41 20 41 17 0 20 -7 20 -40 0 -33 3 -40 20 -40 19 0 20 7 20 95 0 88 -1 95 -20 95 -16 0 -20 -7 -20 -35 0 -28 -4 -35 -20 -35 -16 0 -20 7 -20 35 0 28 -4 35 -20 35 -18 0 -19 -7 -17 -92z"/>
 <path d="M710 1480 c0 -17 7 -20 45 -20 38 0 45 3 45 20 0 17 -7 20 -45 20 -38 0 -45 -3 -45 -20z"/>
 </g>
<g id="layer102" fill="#c25d45" stroke="none">
 <path d="M565 1523 c3 -27 14 -70 23 -96 13 -37 21 -47 37 -45 15 2 23 18 36 68 24 91 24 120 -1 120 -15 0 -20 -7 -20 -25 0 -18 -5 -25 -20 -25 -15 0 -20 7 -20 25 0 19 -5 25 -21 25 -20 0 -21 -4 -14 -47z"/>
 <path d="M860 1495 c0 -60 -3 -75 -15 -75 -8 0 -15 -6 -15 -13 0 -8 -81 -60 -179 -116 -99 -57 -188 -112 -198 -123 -16 -18 -18 -44 -21 -249 -3 -249 3 -296 45 -335 15 -14 116 -76 225 -140 171 -99 203 -115 236 -112 l37 3 3 183 2 182 -23 9 c-18 7 -70 -2 -202 -35 -98 -25 -185 -44 -193 -42 -8 2 -20 11 -26 20 -16 26 8 45 174 138 80 45 154 90 165 101 19 18 20 35 23 253 3 222 4 234 23 239 25 7 25 27 -1 34 -18 5 -20 14 -20 79 0 67 -2 74 -20 74 -18 0 -20 -7 -20 -75z"/>
 <path d="M972 1253 c2 -261 3 -280 5 -104 3 189 5 216 21 228 9 7 25 11 35 9 11 -3 17 2 17 15 0 14 -7 19 -25 19 -18 0 -25 5 -25 20 0 15 7 20 25 20 18 0 25 5 25 20 0 15 -7 20 -25 20 -18 0 -25 5 -25 20 0 15 7 20 25 20 16 0 25 6 25 15 0 11 -11 15 -40 15 l-40 0 2 -317z"/>
 <path d="M1091 1539 c-14 -41 -14 -84 1 -126 10 -28 17 -33 45 -33 22 0 36 6 43 19 15 29 12 41 -10 41 -11 0 -20 -4 -20 -10 0 -19 -30 -10 -31 10 -4 73 0 100 15 100 8 0 16 -7 20 -15 8 -21 36 -19 36 3 0 27 -20 42 -56 42 -27 0 -34 -5 -43 -31z"/>
 <path d="M1203 1478 c2 -79 5 -93 20 -96 14 -3 17 4 17 37 0 34 3 41 20 41 17 0 20 -7 20 -40 0 -33 3 -40 20 -40 19 0 20 7 20 95 0 88 -1 95 -20 95 -16 0 -20 -7 -20 -35 0 -28 -4 -35 -20 -35 -16 0 -20 7 -20 35 0 28 -4 35 -20 35 -18 0 -19 -7 -17 -92z"/>
 <path d="M710 1480 c0 -17 7 -20 45 -20 38 0 45 3 45 20 0 17 -7 20 -45 20 -38 0 -45 -3 -45 -20z"/>
 </g>
<g id="layer103" fill="#b6515e" stroke="none">
 <path d="M565 1523 c3 -27 14 -70 23 -96 13 -37 21 -47 37 -45 15 2 23 18 36 68 24 91 24 120 -1 120 -15 0 -20 -7 -20 -25 0 -18 -5 -25 -20 -25 -15 0 -20 7 -20 25 0 19 -5 25 -21 25 -20 0 -21 -4 -14 -47z"/>
 <path d="M860 1495 c0 -60 -3 -75 -15 -75 -8 0 -15 -7 -15 -15 0 -10 11 -15 33 -16 23 -1 26 -3 10 -6 l-23 -4 0 -257 0 -256 23 22 c21 22 22 29 25 256 3 222 4 234 23 239 25 7 25 27 -1 34 -18 5 -20 14 -20 79 0 67 -2 74 -20 74 -18 0 -20 -7 -20 -75z"/>
 <path d="M973 1253 c1 -254 2 -275 4 -104 3 189 5 216 21 228 9 7 25 11 35 9 11 -3 17 2 17 15 0 14 -7 19 -25 19 -18 0 -25 5 -25 20 0 15 7 20 25 20 18 0 25 5 25 20 0 15 -7 20 -25 20 -18 0 -25 5 -25 20 0 15 7 20 25 20 16 0 25 6 25 15 0 11 -11 15 -40 15 l-39 0 2 -317z"/>
 <path d="M1091 1539 c-14 -41 -14 -84 1 -126 10 -28 17 -33 45 -33 22 0 36 6 43 19 15 29 12 41 -10 41 -11 0 -20 -4 -20 -10 0 -19 -30 -10 -31 10 -4 73 0 100 15 100 8 0 16 -7 20 -15 8 -21 36 -19 36 3 0 27 -20 42 -56 42 -27 0 -34 -5 -43 -31z"/>
 <path d="M1203 1478 c2 -79 5 -93 20 -96 14 -3 17 4 17 37 0 34 3 41 20 41 17 0 20 -7 20 -40 0 -33 3 -40 20 -40 19 0 20 7 20 95 0 88 -1 95 -20 95 -16 0 -20 -7 -20 -35 0 -28 -4 -35 -20 -35 -16 0 -20 7 -20 35 0 28 -4 35 -20 35 -18 0 -19 -7 -17 -92z"/>
 <path d="M710 1480 c0 -17 7 -20 45 -20 38 0 45 3 45 20 0 17 -7 20 -45 20 -38 0 -45 -3 -45 -20z"/>
 <path d="M621 1274 c-79 -45 -154 -92 -165 -104 -20 -19 -21 -33 -24 -250 -3 -249 3 -297 45 -336 28 -26 277 -174 293 -174 10 0 15 251 5 262 -3 3 -53 -6 -110 -21 -97 -23 -106 -24 -121 -9 -31 31 -16 45 154 143 l82 47 0 258 c0 143 -3 261 -7 263 -5 2 -73 -33 -152 -79z"/>
 <path d="M888 708 l-38 -10 0 -169 c0 -167 0 -169 24 -184 15 -10 40 -15 63 -13 l38 3 3 183 2 182 -25 10 c-15 6 -27 10 -28 9 -1 -1 -19 -6 -39 -11z"/>
 </g>
<g id="layer104" fill="#e27d08" stroke="none">
 <path d="M565 1523 c3 -27 14 -70 23 -96 13 -37 21 -47 37 -45 15 2 23 18 36 68 24 91 24 120 -1 120 -15 0 -20 -7 -20 -25 0 -18 -5 -25 -20 -25 -15 0 -20 7 -20 25 0 19 -5 25 -21 25 -20 0 -21 -4 -14 -47z"/>
 <path d="M860 1495 c0 -60 -3 -75 -15 -75 -8 0 -15 -6 -15 -14 0 -16 89 -31 103 -17 12 12 0 31 -19 31 -11 0 -14 16 -14 75 0 68 -2 75 -20 75 -18 0 -20 -7 -20 -75z"/>
 <path d="M970 1480 c0 -65 3 -90 13 -91 6 0 24 -2 40 -3 20 -1 27 3 27 16 0 13 -8 18 -25 18 -18 0 -25 5 -25 20 0 15 7 20 25 20 18 0 25 5 25 20 0 15 -7 20 -25 20 -18 0 -25 5 -25 20 0 15 7 20 25 20 16 0 25 6 25 15 0 11 -11 15 -40 15 l-40 0 0 -90z"/>
 <path d="M1091 1539 c-14 -41 -14 -84 1 -126 10 -28 17 -33 45 -33 22 0 36 6 43 19 15 29 12 41 -10 41 -11 0 -20 -4 -20 -10 0 -19 -30 -10 -31 10 -4 73 0 100 15 100 8 0 16 -7 20 -15 8 -21 36 -19 36 3 0 27 -20 42 -56 42 -27 0 -34 -5 -43 -31z"/>
 <path d="M1203 1478 c2 -79 5 -93 20 -96 14 -3 17 4 17 37 0 34 3 41 20 41 17 0 20 -7 20 -40 0 -33 3 -40 20 -40 19 0 20 7 20 95 0 88 -1 95 -20 95 -16 0 -20 -7 -20 -35 0 -28 -4 -35 -20 -35 -16 0 -20 7 -20 35 0 28 -4 35 -20 35 -18 0 -19 -7 -17 -92z"/>
 <path d="M710 1480 c0 -17 7 -20 45 -20 38 0 45 3 45 20 0 17 -7 20 -45 20 -38 0 -45 -3 -45 -20z"/>
 <path d="M621 1274 c-79 -45 -154 -92 -165 -104 -20 -19 -21 -33 -24 -250 -3 -249 3 -297 45 -336 28 -26 277 -174 293 -174 10 0 15 251 5 262 -3 3 -53 -6 -110 -21 -97 -23 -106 -24 -121 -9 -31 31 -16 45 154 143 l82 47 0 258 c0 143 -3 261 -7 263 -5 2 -73 -33 -152 -79z"/>
 </g>

</svg>